<svg xmlns="http://www.w3.org/2000/svg" width="38" height="38" viewBox="0 0 38 38">
  <g id="Group_15" data-name="Group 15" transform="translate(-275 -68)">
    <circle id="Ellipse_1" data-name="Ellipse 1" cx="19" cy="19" r="19" transform="translate(275 68)" fill="#eaeaea"/>
    <g id="shopping-bag-3049" transform="translate(371.455 202.047)">
      <g id="Group_1" data-name="Group 1" transform="translate(-84.853 -126.036)">
        <path id="Path_1" data-name="Path 1" d="M55.124,5.721H52.572V3.159A3.12,3.12,0,0,0,49.5,0H47.663A3.12,3.12,0,0,0,44.59,3.159V5.721H42.038a.855.855,0,0,0-.855.855V18.061A3.92,3.92,0,0,0,45.1,21.977h6.964a3.92,3.92,0,0,0,3.916-3.916V6.575A.855.855,0,0,0,55.124,5.721ZM46.3,3.159a1.41,1.41,0,0,1,1.363-1.45H49.5a1.41,1.41,0,0,1,1.363,1.45V5.721H46.3Zm7.97,14.9a2.209,2.209,0,0,1-2.206,2.206H45.1a2.209,2.209,0,0,1-2.207-2.206V7.43h1.7V8.9a.855.855,0,1,0,1.709,0V7.43h4.563V8.9a.855.855,0,1,0,1.709,0V7.43h1.7Z" transform="translate(-41.183)"/>
      </g>
    </g>
  </g>
</svg>
