<svg xmlns="http://www.w3.org/2000/svg" width="38" height="38" viewBox="0 0 38 38">
  <g id="Group_16" data-name="Group 16" transform="translate(-322 -68)">
    <circle id="Ellipse_2" data-name="Ellipse 2" cx="19" cy="19" r="19" transform="translate(322 68)" fill="#eaeaea"/>
    <g id="user-6765" transform="translate(444.828 203.542)">
      <g id="Group_3" data-name="Group 3" transform="translate(-112.287 -126.036)">
        <path id="Path_4" data-name="Path 4" d="M30.666,148.244H28.9a6.692,6.692,0,0,0-13.384,0H13.749a8.459,8.459,0,0,1,16.917,0Z" transform="translate(-13.749 -129.255)"/>
        <path id="Path_5" data-name="Path 5" d="M65.843,9.807a4.9,4.9,0,1,1,4.9-4.9A4.909,4.909,0,0,1,65.843,9.807Zm0-8.041A3.137,3.137,0,1,0,68.981,4.9,3.141,3.141,0,0,0,65.843,1.766Z" transform="translate(-57.385)"/>
      </g>
    </g>
  </g>
</svg>
